PathFileType  4	(X/Y/Z) C:\Users\antoi\Documents\MyRepositories\mobilecap\ResultsAnalysis
DataRate	CameraRate	NumFrames	NumMarkers	Units	OrigDataRate	OrigDataStartFrame	OrigNumFrames
100.0	100.0	4	51	mm	100.0	1	135
Frame#	Time	r_knee			r_shank_antsup			r_ankle			r_calc			r_5meta			r_toe			L_knee			L_shank_antsup			L_ankle			L_calc			L_5meta			L_toe			r_sh2			r_sh3			r_sh4			L_sh2			L_sh3			r_thigh1			r_thigh2			r_thigh3			r_thigh4			r_thigh5			L_thigh1			L_thigh2			L_thigh3			L_thigh4			r.ASIS			r.PSIS			L.ASIS			L.PSIS			C7			R_Shoulder			L_Shoulder			R_Sternum			L_Sternum			R_humerus			R_elbow_med			R_elbow_lat			R_forearm			R_wrist_radius			R_wrist_ulna			L_humerus			L_elbow_med			L_elbow_lat			L_forearm			L_wrist_radius			L_wrist_ulna			R_HJC			L_HJC			R_HJC_reg			L_HJC_reg			
		X1	Y1	Z1	X2	Y2	Z2	X3	Y3	Z3	X4	Y4	Z4	X5	Y5	Z5	X6	Y6	Z6	X7	Y7	Z7	X8	Y8	Z8	X9	Y9	Z9	X10	Y10	Z10	X11	Y11	Z11	X12	Y12	Z12	X13	Y13	Z13	X14	Y14	Z14	X15	Y15	Z15	X16	Y16	Z16	X17	Y17	Z17	X18	Y18	Z18	X19	Y19	Z19	X20	Y20	Z20	X21	Y21	Z21	X22	Y22	Z22	X23	Y23	Z23	X24	Y24	Z24	X25	Y25	Z25	X26	Y26	Z26	X27	Y27	Z27	X28	Y28	Z28	X29	Y29	Z29	X30	Y30	Z30	X31	Y31	Z31	X32	Y32	Z32	X33	Y33	Z33	X34	Y34	Z34	X35	Y35	Z35	X36	Y36	Z36	X37	Y37	Z37	X38	Y38	Z38	X39	Y39	Z39	X40	Y40	Z40	X41	Y41	Z41	X42	Y42	Z42	X43	Y43	Z43	X44	Y44	Z44	X45	Y45	Z45	X46	Y46	Z46	X47	Y47	Z47	X48	Y48	Z48	X49	Y49	Z49	X50	Y50	Z50	X51	Y51	Z51	

1	0.00000000	134.71984	488.13907	-62.46685	192.70420	439.00504	-82.37783	230.92345	97.84610	-99.40173	172.98226	62.21311	-140.63913	342.53821	59.69139	-67.84017	387.85778	99.14420	-118.80521	-161.40107	482.14174	-308.65324	-171.24608	380.21093	-312.96908	-353.86882	127.17634	-257.87139	-423.35761	103.50063	-201.02934	-279.00385	40.23692	-311.88777	-222.77718	56.11225	-265.32928	205.36402	323.90645	-64.07164	115.16087	425.75093	-52.80803	131.05632	314.29303	-57.78972	-248.18836	428.02260	-306.67450	-301.75290	317.64056	-301.82582	80.51147	803.04504	-24.80487	118.01986	695.49437	-35.08266	12.99493	654.62686	-15.76449	-23.58971	764.74926	-0.29305	72.29365	656.03960	-5.22971	-65.41124	729.76694	-374.34268	-86.81810	598.70841	-342.73389	-166.33335	753.83373	-324.10746	-184.51578	616.86542	-298.44425	60.94609	936.68971	-67.04146	-133.19958	984.67162	-123.52419	42.15413	915.32913	-317.85904	-147.64838	989.28773	-223.50812	-133.33278	1384.75532	-213.95162	-41.56253	1357.39971	-29.13806	-39.97645	1353.69802	-387.57152	7.63711	1360.59462	-185.61060	12.98823	1360.38919	-228.61266	-55.83471	1224.94179	38.94637	-124.76863	1016.98148	-0.61395	-119.88626	1037.84971	68.96860	-56.45839	918.71941	110.43582	-26.17213	787.09500	135.35225	-58.16747	782.00765	147.74333	16.08870	1253.43699	-444.08972	85.89358	1022.49492	-400.86245	98.13396	1059.19365	-471.12977	211.35898	1048.79104	-455.02948	358.40148	993.12018	-443.88413	348.25794	970.79892	-468.36366	-22.53284	861.34576	-77.56500	-44.30513	852.45007	-282.69167	-12.20855	851.32866	-95.04717	-36.01184	858.93342	-259.76304	
2	0.01000000	146.67831	488.90822	-60.86009	203.13859	438.09547	-80.87900	234.00439	96.70383	-99.01751	174.95271	63.43723	-140.84511	344.30840	55.76003	-67.42627	390.83111	93.70966	-118.37673	-145.98774	481.24969	-308.45006	-158.97191	379.91746	-313.68796	-348.81466	132.64670	-258.74084	-418.83382	112.12192	-201.81410	-277.88788	41.06062	-311.94997	-220.93402	55.34101	-265.85185	213.69835	322.72265	-62.78338	125.48733	426.36083	-51.19902	139.22283	314.58996	-56.32173	-233.87213	429.97248	-306.21572	-290.87164	321.25754	-301.61135	93.90531	804.59329	-23.12733	130.98688	696.69268	-33.45758	25.80891	656.39268	-13.25967	-10.31142	766.61210	1.68861	85.40606	657.56214	-3.16251	-52.34675	729.65219	-373.24388	-72.62436	598.19152	-342.37786	-152.76489	752.87191	-321.60719	-169.92143	615.52083	-297.04686	74.23109	939.06672	-66.46909	-120.30104	985.50893	-122.72955	54.94306	915.24793	-316.93613	-134.89940	989.14405	-222.71303	-121.59760	1384.93692	-212.00473	-28.80000	1357.06855	-27.55663	-28.65481	1354.32038	-386.03594	19.60809	1360.81155	-184.09357	24.78794	1360.77409	-227.07849	-41.30297	1224.67584	40.00504	-109.89343	1016.07734	0.20593	-104.88080	1036.91367	69.86621	-41.37239	917.62031	110.89449	-11.49222	785.88872	135.72509	-43.36243	780.97735	148.25712	26.64501	1253.24378	-442.58789	94.29280	1021.79910	-398.55123	106.46466	1058.10485	-469.24053	219.78784	1047.59795	-452.93750	366.75164	992.00452	-441.69030	356.58980	969.49569	-466.04140	-8.83425	863.19743	-75.98975	-31.11270	852.28730	-280.94504	1.36751	853.04205	-93.57217	-22.67823	859.03023	-258.26099	
3	0.02000000	158.48055	489.70395	-59.32673	213.47187	437.26229	-79.53961	236.87113	95.69384	-98.73254	176.73775	64.55645	-141.04498	345.91692	52.21873	-67.07755	393.53005	88.65254	-118.10343	-130.04395	480.32319	-308.46730	-146.15045	379.63937	-314.49006	-343.32414	138.35828	-259.69150	-413.77093	121.19842	-202.64828	-276.66095	42.05670	-312.00384	-218.94825	54.60102	-266.37286	221.95454	321.64497	-61.62468	135.77681	427.04812	-49.61383	147.32696	314.98294	-54.89182	-219.01802	431.93617	-305.88495	-279.51353	325.01794	-301.59828	107.20234	806.14586	-21.33139	143.83320	697.91025	-31.76120	38.54522	658.15096	-10.80494	2.85058	768.48967	3.69287	98.36769	659.09003	-1.10060	-38.96692	729.60314	-372.10229	-57.97586	597.70974	-342.08777	-138.96916	751.80960	-319.19169	-154.91932	614.06039	-295.78205	87.48149	941.46128	-65.81135	-107.40761	986.40807	-121.85055	67.76971	915.32126	-315.92343	-122.15635	989.07882	-221.83205	-109.85902	1385.20575	-210.03211	-15.98780	1356.85220	-25.98276	-17.39961	1355.03191	-384.49358	31.57727	1361.14153	-182.60081	36.58328	1361.27550	-225.56282	-26.76021	1224.45648	41.06650	-94.96509	1015.29762	1.04341	-89.73892	1036.07299	70.77990	-26.11881	916.64813	111.30025	3.43046	784.80949	136.01147	-28.27886	780.05900	148.69277	37.10609	1253.14461	-441.07856	102.48404	1021.19790	-396.21163	114.58775	1057.03386	-467.30165	228.00987	1046.32491	-450.85294	374.83898	990.64017	-439.50927	364.63265	967.96303	-463.72388	4.84341	865.07779	-74.37231	-17.89629	852.25398	-279.16313	14.93142	854.84929	-92.02659	-9.35565	859.24849	-256.66979	
4	0.03000000	169.98089	490.54186	-57.91329	223.59588	436.55392	-78.45746	239.35506	94.91392	-98.61386	178.20422	65.48935	-141.23264	347.24224	49.35294	-66.83580	395.75014	84.27066	-118.08290	-113.14385	479.33788	-308.89528	-132.33404	379.38252	-315.47586	-337.00317	144.49795	-260.80587	-407.66726	131.10891	-203.58263	-275.22995	43.39049	-312.04973	-216.71569	53.93277	-266.90114	230.02911	320.74308	-60.68445	145.95285	427.86229	-48.09025	155.27520	315.53847	-53.55219	-203.17007	433.90878	-305.81351	-267.26732	329.02520	-301.95185	120.32072	807.70541	-19.34752	156.45866	699.16169	-29.94810	51.12956	659.90504	-8.44879	15.80780	770.40262	5.73162	111.04827	660.62783	0.93939	-25.02009	729.67071	-370.89854	-42.50472	597.29263	-341.93286	-124.76353	750.55986	-316.93686	-139.17927	612.38952	-294.77247	100.66293	943.88359	-64.99233	-94.53211	987.41596	-120.82392	80.65886	915.67378	-314.74623	-109.42951	989.15577	-220.80031	-98.10916	1385.63029	-208.00970	-3.08976	1356.84401	-24.42372	-6.26909	1355.89974	-382.94010	43.53962	1361.67377	-181.15265	48.36480	1361.98171	-224.08298	-12.18240	1224.33746	42.12980	-79.94125	1014.74488	1.91098	-74.35824	1035.40744	71.72127	-10.55692	915.90557	111.61004	18.79057	783.96353	136.14004	-12.69737	779.34474	148.98692	47.38872	1253.20997	-439.56099	110.30899	1020.76292	-393.82157	122.33875	1056.00150	-465.28206	235.85977	1044.90848	-448.78304	382.45198	988.82364	-437.35100	372.14820	966.01307	-461.41885	18.47263	867.00663	-72.67866	-4.64107	852.45401	-277.31900	28.46448	856.81914	-90.35204	3.94280	859.68486	-254.91928	
